<?xml version="1.0" encoding="UTF-8"?>
<svg id="Layer_1" xmlns="http://www.w3.org/2000/svg" version="1.1" viewBox="0 0 96 96">
  <!-- Generator: Adobe Illustrator 29.3.1, SVG Export Plug-In . SVG Version: 2.1.0 Build 151)  -->
  <defs>
    <style>
      .st0 {
        fill: none;
      }

      .st1 {
        fill: #4285f4;
      }

      .st2 {
        fill: #fbbc05;
      }

      .st3 {
        fill: #34a853;
      }

      .st4 {
        fill: #ea4335;
      }
    </style>
  </defs>
  <path class="st1" d="M92.8,48.9c0-3.3-.3-6.5-.9-9.6h-44.1v18.1h25.2c-1.1,5.8-4.4,10.8-9.4,14.1v11.8h15.2c8.9-8.2,14-20.2,14-34.4Z"/>
  <path class="st3" d="M47.8,94.7c12.6,0,23.3-4.2,31-11.3l-15.2-11.8c-4.2,2.8-9.5,4.5-15.8,4.5-12.2,0-22.5-8.2-26.2-19.3H6v12.1c7.7,15.3,23.5,25.8,41.8,25.8Z"/>
  <path class="st2" d="M21.6,56.7c-.9-2.8-1.5-5.8-1.5-8.9s.6-6.1,1.5-8.9v-12.1H6c-3.2,6.3-5,13.4-5,21s1.8,14.7,5,21l12.1-9.5s3.4-2.6,3.4-2.6Z"/>
  <path class="st4" d="M47.8,19.7c6.9,0,13,2.4,17.9,7l13.4-13.4C71,5.6,60.5,1,47.8,1,29.5,1,13.7,11.5,6,26.8l15.6,12.1c3.7-11.1,14.1-19.3,26.2-19.3Z"/>
  <path class="st0" d="M1,1h93.7v93.7H1V1Z"/>
</svg>