<svg width="177" height="57" viewBox="0 0 177 57" fill="none" xmlns="http://www.w3.org/2000/svg">
<path d="M168.651 38.1801C170.163 38.1801 171.459 38.4921 172.539 39.1161C173.619 39.7401 174.447 40.6041 175.023 41.7081C175.623 42.7881 175.923 44.0361 175.923 45.4521C175.923 45.7641 175.911 46.0641 175.887 46.3521C175.863 46.6161 175.815 46.8681 175.743 47.1081H164.907C164.931 49.5801 165.387 51.3561 166.275 52.4361C167.187 53.5161 168.507 54.0561 170.235 54.0561C171.435 54.0561 172.407 53.8641 173.151 53.4801C173.895 53.0721 174.579 52.5081 175.203 51.7881L175.779 52.3281C175.059 53.6481 174.075 54.6801 172.827 55.4241C171.603 56.1441 170.139 56.5041 168.435 56.5041C166.731 56.5041 165.231 56.1441 163.935 55.4241C162.639 54.7041 161.619 53.6721 160.875 52.3281C160.155 50.9601 159.795 49.3281 159.795 47.4321C159.795 45.4641 160.215 43.7961 161.055 42.4281C161.919 41.0601 163.023 40.0161 164.367 39.2961C165.735 38.5521 167.163 38.1801 168.651 38.1801ZM168.471 39.2241C167.775 39.2241 167.163 39.4281 166.635 39.8361C166.131 40.2201 165.723 40.9161 165.411 41.9241C165.123 42.9081 164.955 44.3001 164.907 46.1001H171.351C171.615 43.6761 171.519 41.9241 171.063 40.8441C170.607 39.7641 169.743 39.2241 168.471 39.2241Z" fill="white"/>
<path d="M153.587 56.5039C152.099 56.5039 150.923 56.1439 150.059 55.4239C149.219 54.6799 148.799 53.4799 148.799 51.8239C148.799 51.2479 148.799 50.7079 148.799 50.2039C148.823 49.6759 148.835 49.0639 148.835 48.3679V39.8359H146.279V39.0439L147.251 38.8999C147.947 38.7799 148.535 38.5639 149.015 38.2519C149.519 37.9399 149.975 37.5079 150.383 36.9559L152.723 33.7159H153.803L153.695 38.7199H157.799V39.8359H153.659V52.1119C153.659 52.9759 153.839 53.6239 154.199 54.0559C154.583 54.4879 155.051 54.7039 155.603 54.7039C156.083 54.7039 156.515 54.5959 156.899 54.3799C157.283 54.1399 157.667 53.8279 158.051 53.4439L158.519 53.9839C158.063 54.7759 157.427 55.3999 156.611 55.8559C155.795 56.2879 154.787 56.5039 153.587 56.5039Z" fill="white"/>
<path d="M133.048 56.504C132.112 56.504 131.26 56.336 130.492 56C129.724 55.64 129.112 55.064 128.656 54.272C128.224 53.456 128.02 52.388 128.044 51.068L128.152 42.032C128.152 41.504 128.068 41.12 127.9 40.88C127.732 40.64 127.432 40.472 127 40.376L126.568 40.232V39.584L132.724 38.396L133.12 38.792L132.94 43.868V52.04C132.94 52.856 133.156 53.456 133.588 53.84C134.044 54.2 134.608 54.38 135.28 54.38C135.976 54.38 136.6 54.284 137.152 54.092C137.728 53.876 138.316 53.564 138.916 53.156L139.024 42.068C139.024 41.516 138.94 41.132 138.772 40.916C138.628 40.7 138.34 40.532 137.908 40.412L137.512 40.304V39.656L143.524 38.396L143.92 38.792L143.812 43.868V53.3C143.812 53.804 143.872 54.212 143.992 54.524C144.136 54.812 144.436 55.028 144.892 55.172L145.36 55.316V56L139.276 56.36L138.952 54.092C138.136 54.788 137.248 55.364 136.288 55.82C135.328 56.276 134.248 56.504 133.048 56.504Z" fill="white"/>
<path d="M120.646 56.5039C119.158 56.5039 117.982 56.1439 117.118 55.4239C116.278 54.6799 115.858 53.4799 115.858 51.8239C115.858 51.2479 115.858 50.7079 115.858 50.2039C115.882 49.6759 115.894 49.0639 115.894 48.3679V39.8359H113.338V39.0439L114.31 38.8999C115.006 38.7799 115.594 38.5639 116.074 38.2519C116.578 37.9399 117.034 37.5079 117.442 36.9559L119.782 33.7159H120.862L120.754 38.7199H124.858V39.8359H120.718V52.1119C120.718 52.9759 120.898 53.6239 121.258 54.0559C121.642 54.4879 122.11 54.7039 122.662 54.7039C123.142 54.7039 123.574 54.5959 123.958 54.3799C124.342 54.1399 124.726 53.8279 125.11 53.4439L125.578 53.9839C125.122 54.7759 124.486 55.3999 123.67 55.8559C122.854 56.2879 121.846 56.5039 120.646 56.5039Z" fill="white"/>
<path d="M108.175 36.2C107.383 36.2 106.711 35.9479 106.159 35.4439C105.607 34.9399 105.331 34.3039 105.331 33.5359C105.331 32.7439 105.607 32.1079 106.159 31.6279C106.711 31.1239 107.383 30.8719 108.175 30.8719C108.967 30.8719 109.639 31.1239 110.191 31.6279C110.743 32.1079 111.019 32.7439 111.019 33.5359C111.019 34.3039 110.743 34.9399 110.191 35.4439C109.639 35.9479 108.967 36.2 108.175 36.2ZM104.035 55.9999V55.3159L104.575 55.172C105.055 55.028 105.379 54.8119 105.547 54.5239C105.715 54.2359 105.811 53.8519 105.835 53.3719V46.7479C105.835 46.0039 105.835 45.3199 105.835 44.6959C105.835 44.0479 105.823 43.3879 105.799 42.716C105.799 42.2359 105.703 41.8639 105.511 41.5999C105.343 41.3119 105.019 41.1199 104.539 41.0239L104.035 40.9159V40.268L110.335 38.1799L110.767 38.576L110.659 43.688V53.408C110.659 53.888 110.743 54.272 110.911 54.56C111.103 54.848 111.427 55.0639 111.883 55.2079L112.279 55.3159V55.9999H104.035Z" fill="white"/>
<path d="M97.8646 56.5039C96.3766 56.5039 95.2006 56.1439 94.3366 55.4239C93.4966 54.6799 93.0766 53.4799 93.0766 51.8239C93.0766 51.2479 93.0766 50.7079 93.0766 50.2039C93.1006 49.6759 93.1126 49.0639 93.1126 48.3679V39.8359H90.5566V39.0439L91.5286 38.8999C92.2246 38.7799 92.8126 38.5639 93.2926 38.2519C93.7966 37.9399 94.2526 37.5079 94.6606 36.9559L97.0006 33.7159H98.0806L97.9726 38.7199H102.077V39.8359H97.9366V52.1119C97.9366 52.9759 98.1166 53.6239 98.4766 54.0559C98.8606 54.4879 99.3286 54.7039 99.8806 54.7039C100.361 54.7039 100.793 54.5959 101.177 54.3799C101.561 54.1399 101.945 53.8279 102.329 53.4439L102.797 53.9839C102.341 54.7759 101.705 55.3999 100.889 55.8559C100.073 56.2879 99.0646 56.5039 97.8646 56.5039Z" fill="white"/>
<path d="M81.6797 56.5041C80.5277 56.5041 79.4837 56.3721 78.5477 56.1081C77.6357 55.8681 76.7597 55.5201 75.9197 55.0641V50.8161H76.8917L77.9717 52.8681C78.4277 53.7561 78.9437 54.4161 79.5197 54.8481C80.1197 55.2801 80.8757 55.4961 81.7877 55.4961C82.9157 55.4961 83.8157 55.2561 84.4877 54.7761C85.1597 54.2721 85.4957 53.6001 85.4957 52.7601C85.4957 51.9921 85.2437 51.3681 84.7397 50.8881C84.2357 50.4081 83.3357 49.9641 82.0397 49.5561L80.4557 49.0521C79.0397 48.6201 77.9117 47.9721 77.0717 47.1081C76.2557 46.2201 75.8477 45.1161 75.8477 43.7961C75.8477 42.7641 76.1237 41.8281 76.6757 40.9881C77.2277 40.1241 78.0317 39.4401 79.0877 38.9361C80.1437 38.4321 81.4277 38.1801 82.9397 38.1801C83.9237 38.1801 84.8237 38.3001 85.6397 38.5401C86.4797 38.7561 87.2957 39.0681 88.0877 39.4761L87.8717 43.3281H86.9357L85.8197 41.2761C85.4357 40.5081 85.0397 39.9801 84.6317 39.6921C84.2477 39.3801 83.6477 39.2241 82.8317 39.2241C81.9677 39.2241 81.1997 39.4521 80.5277 39.9081C79.8797 40.3401 79.5557 40.9521 79.5557 41.7441C79.5557 42.4881 79.8317 43.1001 80.3837 43.5801C80.9357 44.0361 81.8237 44.4681 83.0477 44.8761L84.5957 45.3441C86.3477 45.8961 87.5957 46.6281 88.3397 47.5401C89.0837 48.4521 89.4557 49.5441 89.4557 50.8161C89.4557 52.5201 88.7717 53.9001 87.4037 54.9561C86.0597 55.9881 84.1517 56.5041 81.6797 56.5041Z" fill="white"/>
<path d="M54.7793 56.0001V55.3161L55.3553 55.1721C56.1473 54.9321 56.5433 54.3441 56.5433 53.4081V42.7881C56.5193 42.2841 56.4353 41.9001 56.2913 41.6361C56.1473 41.3481 55.8353 41.1561 55.3553 41.0601L54.7793 40.9161V40.2681L60.6113 38.1801L61.0433 38.5761L61.2953 40.8081C62.1593 40.0401 63.1193 39.4161 64.1753 38.9361C65.2553 38.4321 66.3113 38.1801 67.3433 38.1801C68.9273 38.1801 70.1393 38.6121 70.9793 39.4761C71.8433 40.3401 72.2753 41.6601 72.2753 43.4361V53.4441C72.2753 54.3801 72.7073 54.9681 73.5713 55.2081L73.9673 55.3161V56.0001H65.6873V55.3161L66.2273 55.1721C67.0193 54.9081 67.4153 54.3201 67.4153 53.4081V42.7161C67.4153 41.8761 67.2353 41.2641 66.8753 40.8801C66.5153 40.4961 65.9153 40.3041 65.0753 40.3041C63.8993 40.3041 62.6753 40.8201 61.4033 41.8521V53.4441C61.4033 54.3801 61.8233 54.9681 62.6633 55.2081L63.0233 55.3161V56.0001H54.7793Z" fill="white"/>
<path d="M44.1992 56V55.244L44.9192 55.028C45.3992 54.86 45.7112 54.644 45.8552 54.38C46.0232 54.092 46.1072 53.696 46.1072 53.192V35.012C46.1072 34.508 46.0232 34.124 45.8552 33.86C45.7112 33.572 45.3992 33.344 44.9192 33.176L44.1992 32.96V32.204H53.1992V32.96L52.4792 33.176C52.0232 33.344 51.7112 33.572 51.5432 33.86C51.3752 34.124 51.2912 34.508 51.2912 35.012V53.192C51.2912 53.696 51.3752 54.092 51.5432 54.38C51.7112 54.644 52.0232 54.86 52.4792 55.028L53.1992 55.244V56H44.1992Z" fill="white"/>
<path d="M157.084 26.0001V25.3161L157.66 25.1721C158.452 24.9321 158.848 24.3441 158.848 23.4081V12.7881C158.824 12.2841 158.74 11.9001 158.596 11.6361C158.452 11.3481 158.14 11.1561 157.66 11.0601L157.084 10.9161V10.2681L162.916 8.18005L163.348 8.57605L163.6 10.8081C164.464 10.0401 165.424 9.41605 166.48 8.93605C167.56 8.43205 168.616 8.18005 169.648 8.18005C171.232 8.18005 172.444 8.61205 173.284 9.47605C174.148 10.3401 174.58 11.6601 174.58 13.4361V23.4441C174.58 24.3801 175.012 24.9681 175.876 25.2081L176.272 25.3161V26.0001H167.992V25.3161L168.532 25.1721C169.324 24.9081 169.72 24.3201 169.72 23.4081V12.7161C169.72 11.8761 169.54 11.2641 169.18 10.8801C168.82 10.4961 168.22 10.3041 167.38 10.3041C166.204 10.3041 164.98 10.8201 163.708 11.8521V23.4441C163.708 24.3801 164.128 24.9681 164.968 25.2081L165.328 25.3161V26.0001H157.084Z" fill="white"/>
<path d="M151.382 6.19995C150.59 6.19995 149.918 5.94795 149.366 5.44395C148.814 4.93995 148.538 4.30395 148.538 3.53595C148.538 2.74395 148.814 2.10795 149.366 1.62795C149.918 1.12395 150.59 0.871948 151.382 0.871948C152.174 0.871948 152.846 1.12395 153.398 1.62795C153.95 2.10795 154.226 2.74395 154.226 3.53595C154.226 4.30395 153.95 4.93995 153.398 5.44395C152.846 5.94795 152.174 6.19995 151.382 6.19995ZM147.242 25.9999V25.3159L147.782 25.1719C148.262 25.0279 148.586 24.8119 148.754 24.5239C148.922 24.2359 149.018 23.8519 149.042 23.3719V16.7479C149.042 16.0039 149.042 15.3199 149.042 14.6959C149.042 14.0479 149.03 13.3879 149.006 12.7159C149.006 12.2359 148.91 11.8639 148.718 11.5999C148.55 11.3119 148.226 11.1199 147.746 11.0239L147.242 10.9159V10.2679L153.542 8.17995L153.974 8.57595L153.866 13.6879V23.4079C153.866 23.8879 153.95 24.2719 154.118 24.5599C154.31 24.8479 154.634 25.0639 155.09 25.2079L155.486 25.3159V25.9999H147.242Z" fill="white"/>
<path d="M133.933 26.5041C132.565 26.5041 131.401 26.1201 130.441 25.3521C129.505 24.5601 129.037 23.4321 129.037 21.9681C129.037 20.8161 129.589 19.7601 130.693 18.8001C131.821 17.8161 133.585 17.0961 135.985 16.6401C136.393 16.5441 136.861 16.4601 137.389 16.3881C137.941 16.2921 138.481 16.1961 139.009 16.1001V13.5441C139.009 11.9121 138.805 10.7841 138.397 10.1601C137.989 9.53605 137.341 9.22405 136.453 9.22405H136.345C135.793 9.22405 135.349 9.40405 135.013 9.76405C134.701 10.1001 134.497 10.6641 134.401 11.4561L134.293 11.9241C134.221 12.8841 133.969 13.5921 133.537 14.0481C133.105 14.4801 132.565 14.6961 131.917 14.6961C131.317 14.6961 130.813 14.5161 130.405 14.1561C130.021 13.7721 129.829 13.2801 129.829 12.6801C129.829 11.6961 130.165 10.8681 130.837 10.1961C131.509 9.52405 132.397 9.02005 133.501 8.68405C134.629 8.34805 135.841 8.18005 137.137 8.18005C139.273 8.18005 140.905 8.69605 142.033 9.72805C143.161 10.7601 143.725 12.4401 143.725 14.7681V22.7961C143.725 23.8281 144.217 24.3441 145.201 24.3441H146.029L146.389 24.7401C145.957 25.2921 145.477 25.7121 144.949 26.0001C144.421 26.3121 143.701 26.4681 142.789 26.4681C141.757 26.4681 140.929 26.2281 140.305 25.7481C139.705 25.2441 139.309 24.5841 139.117 23.7681C138.349 24.5841 137.593 25.2441 136.849 25.7481C136.105 26.2521 135.133 26.5041 133.933 26.5041ZM136.021 24.2001C136.501 24.2001 136.957 24.0921 137.389 23.8761C137.821 23.6601 138.361 23.3001 139.009 22.7961V17.0361C138.385 17.1321 137.749 17.2521 137.101 17.3961C136.069 17.6361 135.229 18.0801 134.581 18.7281C133.957 19.3761 133.645 20.2521 133.645 21.3561C133.645 22.3161 133.861 23.0361 134.293 23.5161C134.749 23.9721 135.325 24.2001 136.021 24.2001Z" fill="white"/>
<path d="M113.771 26.0001V25.3161L114.311 25.1361C114.791 25.0161 115.115 24.8121 115.283 24.5241C115.475 24.2361 115.571 23.8521 115.571 23.3721V12.8241C115.547 12.2961 115.451 11.9001 115.283 11.6361C115.115 11.3481 114.791 11.1561 114.311 11.0601L113.771 10.9161V10.2681L119.639 8.18005L120.071 8.57605L120.395 11.7441V11.9961C120.755 11.3241 121.211 10.7001 121.763 10.1241C122.315 9.54805 122.915 9.08005 123.563 8.72005C124.211 8.36005 124.859 8.18005 125.507 8.18005C126.419 8.18005 127.103 8.42005 127.559 8.90005C128.015 9.38005 128.243 9.99205 128.243 10.7361C128.243 11.5521 128.015 12.1761 127.559 12.6081C127.103 13.0161 126.551 13.2201 125.903 13.2201C124.943 13.2201 124.115 12.7881 123.419 11.9241L123.347 11.8521C123.107 11.5641 122.831 11.4081 122.519 11.3841C122.231 11.3361 121.943 11.4801 121.655 11.8161C121.415 12.0561 121.187 12.3441 120.971 12.6801C120.779 12.9921 120.599 13.3641 120.431 13.7961V23.2281C120.431 23.6841 120.527 24.0681 120.719 24.3801C120.911 24.6681 121.235 24.8721 121.691 24.9921L122.771 25.3161V26.0001H113.771Z" fill="white"/>
<path d="M92.4688 26V25.244L93.0447 25.064C93.5487 24.872 93.8847 24.62 94.0527 24.308C94.2447 23.996 94.3407 23.576 94.3407 23.048C94.3647 21.68 94.3767 20.312 94.3767 18.944C94.3767 17.552 94.3767 16.16 94.3767 14.768V13.472C94.3767 12.08 94.3647 10.7 94.3407 9.33198C94.3407 7.93998 94.3407 6.54798 94.3407 5.15598C94.3407 4.57998 94.2567 4.14798 94.0887 3.85998C93.9207 3.54798 93.5727 3.30798 93.0447 3.13998L92.4688 2.95998V2.20398H102.621C105.501 2.20398 107.589 2.74398 108.885 3.82398C110.181 4.87998 110.829 6.22398 110.829 7.85598C110.829 9.10398 110.373 10.232 109.461 11.24C108.549 12.224 106.953 12.932 104.673 13.364C107.313 13.652 109.221 14.336 110.397 15.416C111.573 16.496 112.161 17.816 112.161 19.376C112.161 20.144 111.993 20.924 111.657 21.716C111.321 22.484 110.745 23.192 109.929 23.84C109.137 24.488 108.057 25.016 106.689 25.424C105.321 25.808 103.593 26 101.505 26H92.4688ZM99.4887 13.112H101.181C102.813 13.112 103.989 12.752 104.709 12.032C105.453 11.288 105.825 10.028 105.825 8.25198C105.825 6.40398 105.489 5.10798 104.817 4.36398C104.145 3.61998 103.089 3.24798 101.649 3.24798H99.4887V13.112ZM99.4887 24.956H101.469C103.269 24.956 104.613 24.512 105.501 23.624C106.389 22.736 106.833 21.308 106.833 19.34C106.833 17.444 106.401 16.112 105.537 15.344C104.697 14.552 103.305 14.156 101.361 14.156H99.4887V24.956Z" fill="white"/>
<path d="M63.8145 26.0001V25.3161L64.3905 25.1721C65.1825 24.9321 65.5784 24.3441 65.5784 23.4081V12.7881C65.5544 12.2841 65.4704 11.9001 65.3264 11.6361C65.1824 11.3481 64.8705 11.1561 64.3905 11.0601L63.8145 10.9161V10.2681L69.6465 8.18005L70.0784 8.57605L70.3305 10.8081C71.1945 10.0401 72.1544 9.41605 73.2104 8.93605C74.2904 8.43205 75.3464 8.18005 76.3784 8.18005C77.9624 8.18005 79.1745 8.61205 80.0145 9.47605C80.8785 10.3401 81.3105 11.6601 81.3105 13.4361V23.4441C81.3105 24.3801 81.7425 24.9681 82.6065 25.2081L83.0025 25.3161V26.0001H74.7225V25.3161L75.2625 25.1721C76.0545 24.9081 76.4505 24.3201 76.4505 23.4081V12.7161C76.4505 11.8761 76.2704 11.2641 75.9104 10.8801C75.5504 10.4961 74.9505 10.3041 74.1105 10.3041C72.9345 10.3041 71.7104 10.8201 70.4384 11.8521V23.4441C70.4384 24.3801 70.8585 24.9681 71.6985 25.2081L72.0585 25.3161V26.0001H63.8145Z" fill="white"/>
<path d="M54.7095 8.18005C56.2215 8.18005 57.5175 8.49205 58.5975 9.11605C59.6775 9.74005 60.5055 10.6041 61.0815 11.7081C61.6815 12.7881 61.9815 14.0361 61.9815 15.4521C61.9815 15.7641 61.9695 16.0641 61.9455 16.3521C61.9215 16.6161 61.8735 16.8681 61.8015 17.1081H50.9655C50.9895 19.5801 51.4455 21.3561 52.3335 22.4361C53.2455 23.5161 54.5655 24.0561 56.2935 24.0561C57.4935 24.0561 58.4655 23.8641 59.2095 23.4801C59.9535 23.0721 60.6375 22.5081 61.2615 21.7881L61.8375 22.3281C61.1175 23.6481 60.1335 24.6801 58.8855 25.4241C57.6615 26.1441 56.1975 26.5041 54.4935 26.5041C52.7895 26.5041 51.2895 26.1441 49.9935 25.4241C48.6975 24.7041 47.6775 23.6721 46.9335 22.3281C46.2135 20.9601 45.8535 19.3281 45.8535 17.4321C45.8535 15.4641 46.2735 13.7961 47.1135 12.4281C47.9775 11.0601 49.0815 10.0161 50.4255 9.29605C51.7935 8.55205 53.2215 8.18005 54.7095 8.18005ZM54.5295 9.22405C53.8335 9.22405 53.2215 9.42805 52.6935 9.83605C52.1895 10.2201 51.7815 10.9161 51.4695 11.9241C51.1815 12.9081 51.0135 14.3001 50.9655 16.1001H57.4095C57.6735 13.6761 57.5775 11.9241 57.1215 10.8441C56.6655 9.76405 55.8015 9.22405 54.5295 9.22405Z" fill="white"/>
<path d="M24.9316 34.3161V33.6321L25.3996 33.4881C25.8796 33.3681 26.2156 33.1641 26.4076 32.8761C26.5996 32.6121 26.6956 32.2281 26.6956 31.7241C26.6956 30.7401 26.6956 29.8041 26.6956 28.9161C26.7196 28.0521 26.7316 27.2121 26.7316 26.3961V16.4961C26.7316 15.7521 26.7316 15.1161 26.7316 14.5881C26.7316 14.0361 26.7196 13.4241 26.6956 12.7521C26.6956 12.2481 26.6116 11.8641 26.4436 11.6001C26.2756 11.3121 25.9516 11.1201 25.4716 11.0241L24.9316 10.9161V10.2681L30.7276 8.18005L31.1596 8.54005L31.4836 9.87206C33.1396 8.74405 35.0116 8.18005 37.0996 8.18005C39.1396 8.18005 40.7716 8.94805 41.9956 10.4841C43.2436 12.0201 43.8676 14.2881 43.8676 17.2881C43.8676 20.1921 43.1836 22.4601 41.8156 24.0921C40.4716 25.7001 38.6356 26.5041 36.3076 26.5041C35.3716 26.5041 34.4836 26.4201 33.6436 26.2521C32.8276 26.0841 32.0956 25.8321 31.4476 25.4961V26.5761C31.4476 27.2961 31.4476 28.0761 31.4476 28.9161C31.4716 29.7561 31.4836 30.6681 31.4836 31.6521C31.4836 32.6121 31.9036 33.2121 32.7436 33.4521L33.4276 33.6321V34.3161H24.9316ZM34.6156 25.0641C35.8876 25.0641 36.8836 24.5001 37.6036 23.3721C38.3476 22.2201 38.7196 20.2401 38.7196 17.4321C38.7196 14.6481 38.3716 12.7041 37.6756 11.6001C36.9796 10.4721 35.9956 9.90805 34.7236 9.90805C34.2676 9.90805 33.7756 9.98005 33.2476 10.1241C32.7196 10.2681 32.1556 10.5081 31.5556 10.8441V24.4521C32.5156 24.8601 33.5356 25.0641 34.6156 25.0641Z" fill="white"/>
<path d="M12.1536 26.612C10.6896 26.612 9.28561 26.348 7.94161 25.82C6.59761 25.292 5.38561 24.512 4.30561 23.48C3.24961 22.424 2.40961 21.116 1.78561 19.556C1.16161 17.996 0.849609 16.172 0.849609 14.084C0.849609 12.044 1.16161 10.244 1.78561 8.68403C2.40961 7.12403 3.24961 5.81603 4.30561 4.76003C5.38561 3.70403 6.59761 2.91203 7.94161 2.38403C9.30961 1.83203 10.7136 1.55603 12.1536 1.55603C13.5936 1.55603 14.9856 1.82003 16.3296 2.34803C17.6976 2.87603 18.9096 3.66803 19.9656 4.72403C21.0216 5.75603 21.8616 7.05203 22.4856 8.61203C23.1096 10.172 23.4216 11.996 23.4216 14.084C23.4216 16.124 23.1096 17.924 22.4856 19.484C21.8616 21.044 21.0216 22.352 19.9656 23.408C18.9096 24.464 17.7096 25.268 16.3656 25.82C15.0216 26.348 13.6176 26.612 12.1536 26.612ZM12.1536 25.532C13.5216 25.532 14.6256 25.184 15.4656 24.488C16.3056 23.768 16.9176 22.568 17.3016 20.888C17.6856 19.208 17.8776 16.94 17.8776 14.084C17.8776 11.228 17.6856 8.97203 17.3016 7.31603C16.9176 5.63603 16.3056 4.44803 15.4656 3.75203C14.6256 3.03203 13.5216 2.67203 12.1536 2.67203C10.8096 2.67203 9.70561 3.03203 8.84161 3.75203C8.00161 4.44803 7.38961 5.63603 7.00561 7.31603C6.62161 8.97203 6.42961 11.228 6.42961 14.084C6.42961 16.94 6.62161 19.208 7.00561 20.888C7.38961 22.568 8.00161 23.768 8.84161 24.488C9.70561 25.184 10.8096 25.532 12.1536 25.532Z" fill="white"/>
</svg>
